<?xml version="1.0" encoding="utf-8"?>
<!-- Generator: Adobe Illustrator 16.0.0, SVG Export Plug-In . SVG Version: 6.00 Build 0)  -->
<!DOCTYPE svg PUBLIC "-//W3C//DTD SVG 1.1//EN" "http://www.w3.org/Graphics/SVG/1.1/DTD/svg11.dtd">
<svg version="1.1" id="Capa_1" xmlns="http://www.w3.org/2000/svg" xmlns:xlink="http://www.w3.org/1999/xlink" x="0px" y="0px"
	 width="500px" height="500px" viewBox="0 0 500 500" enable-background="new 0 0 500 500" xml:space="preserve">
<path fill="#58A1D4" d="M411.885,447.313c-1.986-2.707-5.178-4.324-8.537-4.324c-2.281,0-4.458,0.721-6.295,2.084l-38.568,28.5
	c-0.911,0.674-2.524,1.092-4.209,1.092c-1.493,0-2.885-0.332-3.727-0.891L316.76,451.5c-4.475-2.957-10.226-4.586-16.195-4.586
	c-5.868,0-11.526,1.582-15.932,4.453l-34.598,22.449c-1.053,0.676-2.808,1.08-4.694,1.08c-1.819,0-3.516-0.383-4.533-1.02
	l-35.954-22.709c-4.219-2.658-9.55-4.121-15.012-4.121c-6.416,0-12.523,1.936-17.196,5.453l-27.938,21.041
	c-0.924,0.697-2.559,1.133-4.266,1.133c-1.472,0-2.8-0.314-3.642-0.859l-34.591-22.436c-4.217-2.742-9.298-4.191-14.693-4.191
	c-6.613,0-12.856,2.172-17.579,6.115L36.441,481.24c-4.49,3.738-5.105,10.439-1.366,14.947c2.04,2.424,5.014,3.813,8.159,3.813
	c2.474,0,4.886-0.873,6.793-2.459l33.498-27.939c0.873-0.73,2.405-1.184,4-1.184c1.237,0,2.373,0.275,3.116,0.76l34.603,22.441
	c4.263,2.771,9.666,4.297,15.213,4.297c6.343,0,12.389-1.924,17.023-5.418l27.945-21.045c0.948-0.727,2.646-1.178,4.431-1.178
	c1.477,0,2.806,0.307,3.648,0.842l35.97,22.711c4.4,2.773,10.033,4.301,15.863,4.301c5.982,0,11.746-1.598,16.229-4.5l34.604-22.449
	c0.987-0.641,2.629-1.021,4.391-1.021c1.812,0,3.491,0.398,4.498,1.066l33.788,22.268c4.311,2.855,9.797,4.428,15.447,4.428
	c0.001,0,0.001,0,0.001,0c6.244,0,12.21-1.869,16.799-5.264l38.57-28.506C414.36,458.672,415.356,452.014,411.885,447.313z"/>
<path fill="#ABABAB" d="M208.666,404.227l96.833-33.176c6.813-2.338,13.396-9.992,13.984-17.184
	c7.615-92.27-72.604-174.891-149.136-209.058c-6.583-2.929-11.235,0.797-10.226,7.935l34.37,242.799
	C195.503,402.674,201.847,406.568,208.666,404.227z"/>
<path fill="#FCC013" d="M376.696,202.376c0-57.461-46.747-104.207-104.205-104.207c-34.326,0-64.822,16.682-83.821,42.361
	c6.312,2.979,12.634,6.282,18.919,9.886c15.259-19.02,38.674-31.23,64.902-31.23c45.869,0,83.187,37.318,83.187,83.189
	c0,28.307-14.223,53.342-35.886,68.375c2.832,6.658,5.273,13.451,7.277,20.355C356.823,272.738,376.696,239.836,376.696,202.376z"/>
<path fill="#FCC013" d="M272.482,80.388c5.805,0,10.509-4.705,10.509-10.508V12.339c0-5.803-4.704-10.508-10.509-10.508
	s-10.51,4.705-10.51,10.508V69.88C261.972,75.683,266.677,80.388,272.482,80.388z"/>
<path fill="#FCC013" d="M461.457,191.863h-56.487c-5.805,0-10.51,4.705-10.51,10.51s4.705,10.51,10.51,10.51h56.487
	c5.804,0,10.509-4.705,10.509-10.51S467.26,191.863,461.457,191.863z"/>
<path fill="#FCC013" d="M366.164,119.195c2.689,0,5.379-1.027,7.431-3.078l30.854-30.855c4.104-4.104,4.104-10.758,0-14.861
	c-4.105-4.104-10.76-4.104-14.863,0l-30.853,30.855c-4.104,4.104-4.104,10.758,0,14.861
	C360.785,118.169,363.472,119.195,366.164,119.195z"/>
<path fill="#FCC013" d="M373.194,288.227c-4.105-4.104-10.759-4.104-14.862,0c-4.104,4.104-4.104,10.76,0,14.863l31.66,31.662
	c2.053,2.051,4.741,3.078,7.431,3.078s5.38-1.027,7.432-3.078c4.104-4.105,4.104-10.76,0-14.863L373.194,288.227z"/>
<path fill="#FCC013" d="M178.796,119.195c2.689,0,5.379-1.027,7.431-3.078c4.104-4.104,4.104-10.758,0.001-14.861l-31.196-31.197
	c-4.104-4.105-10.758-4.105-14.861-0.002c-4.104,4.104-4.105,10.758-0.001,14.863l31.195,31.197
	C173.417,118.169,176.107,119.195,178.796,119.195z"/>
<path fill="#ABABAB" d="M107.708,440.848l32.791,21.277l27.114-20.42c11.415-8.6,29.594-9.361,41.705-1.738l11.055,6.984
	c9.748-3.316,20.666-7.018,32.581-11.07c35.867-12.17,61.972-37.633,73.595-50.645c3.828-4.291-1.275-18.047-6.055-15.334
	c-45.441,25.775-203.674,64.529-210.05,65.668C108.669,435.896,107.847,438.023,107.708,440.848z"/>
<path fill="#ABABAB" d="M174.015,397.248l-84.373-4.615c-5.938-0.326-12.889-4.93-14.97-10.51
	c-26.768-71.592,18.409-155.237,71.537-199.564c4.572-3.806,9.105-1.89,9.905,4.006l27.211,200.601
	C184.122,393.059,179.957,397.576,174.015,397.248z"/>
</svg>
